<svg xmlns="http://www.w3.org/2000/svg" viewBox="0 0 1000 1000" width="1000" height="1000">
  <defs>
    <linearGradient id="afpassGoldOutline" x1="0%" y1="0%" x2="100%" y2="100%">
      <stop offset="0%" stop-color="#D4A95A"/>
      <stop offset="100%" stop-color="#8B6914"/>
    </linearGradient>
  </defs>
  <g transform="matrix(0.11689961880559085 0 0 -0.11689961880559085 -57.02668360864041 1006.1753494282084)" fill="url(#afpassGoldOutline)" fill-rule="evenodd">
  <path d="M4456 7725 c-94 -26 -177 -75 -251 -149 -85 -85 -63 -45 -805 -1496
-128 -250 -288 -563 -355 -695 -442 -865 -542 -1061 -630 -1235 -54 -107 -216
-427 -360 -710 -383 -752 -675 -1326 -1079 -2123 -158 -312 -170 -349 -124
-381 42 -30 1139 -23 1171 7 14 12 90 159 170 327 152 321 545 1134 642 1330
32 63 97 198 145 300 89 187 175 366 380 785 62 127 165 340 230 475 65 135
193 398 285 585 92 187 200 408 240 490 225 465 425 864 435 870 18 11 36 -13
69 -90 16 -38 63 -144 104 -235 41 -91 118 -262 172 -380 53 -118 110 -244
125 -280 15 -36 62 -141 105 -235 42 -93 103 -228 135 -300 32 -71 99 -222
150 -335 50 -113 116 -259 145 -325 29 -66 70 -156 90 -200 21 -44 69 -152
107 -240 90 -206 207 -471 248 -560 18 -38 52 -117 77 -175 94 -222 69 -248
425 462 284 565 612 1214 1013 2003 432 850 737 1451 999 1967 202 399 208
417 166 485 -45 74 154 68 -2130 70 -1688 1 -2054 -1 -2094 -12z m4129 -95
c29 -24 14 -64 -139 -363 -84 -166 -238 -468 -341 -672 -103 -203 -225 -443
-271 -532 -46 -89 -194 -381 -330 -650 -135 -268 -284 -560 -329 -648 -109
-212 -617 -1215 -825 -1630 -91 -181 -169 -329 -175 -330 -12 0 -25 25 -116
230 -39 88 -100 223 -134 300 -35 77 -77 172 -93 210 -16 39 -64 147 -107 240
-42 94 -95 211 -117 260 -21 50 -45 104 -53 120 -86 189 -175 388 -175 391 0
2 -53 122 -119 267 -147 324 -201 446 -201 451 0 3 -24 55 -54 118 -29 62 -57
124 -61 138 -4 14 -21 52 -38 85 -16 33 -49 103 -72 155 -24 52 -66 147 -95
210 -28 63 -68 152 -87 198 -39 91 -66 118 -109 108 -22 -6 -46 -47 -174 -309
-81 -166 -227 -464 -325 -662 -98 -198 -215 -436 -260 -530 -45 -93 -129 -267
-187 -385 -58 -118 -173 -354 -256 -525 -82 -170 -207 -426 -276 -569 -69
-142 -126 -260 -126 -262 0 -2 -53 -112 -119 -246 -178 -364 -400 -822 -632
-1307 -115 -239 -216 -442 -225 -452 -21 -23 -979 -30 -1001 -8 -8 8 2 38 38
112 64 131 600 1189 989 1952 174 341 378 743 620 1220 112 220 278 546 370
725 92 179 259 505 370 725 111 220 224 441 250 490 26 50 116 225 200 390 84
165 181 354 215 420 34 66 93 179 130 250 111 214 222 305 396 323 136 14
4027 7 4044 -8z"/>
  <path d="M4443 4668 c-6 -7 -36 -69 -68 -138 -32 -69 -90 -195 -130 -280 -40
-85 -140 -299 -223 -475 -82 -176 -167 -354 -187 -397 -69 -138 -115 -128 618
-128 765 0 710 -17 616 191 -60 134 -150 336 -224 504 -29 66 -62 140 -73 165
-45 97 -137 301 -188 419 -29 68 -59 130 -65 137 -14 17 -63 18 -76 2z m66
-214 c48 -97 243 -533 311 -694 15 -36 50 -114 78 -175 77 -168 93 -210 79
-224 -17 -17 -1011 -16 -1025 2 -7 8 17 69 85 212 52 110 167 355 255 545 193
414 185 401 217 334z"/>
  <path d="M3565 2750 c-32 -12 -32 -12 -215 -400 -214 -453 -549 -1158 -601
-1265 -42 -87 -48 -125 -23 -149 22 -23 2368 -24 2453 -1 198 52 263 125 451
500 171 344 167 326 96 490 -27 61 -70 162 -96 225 -27 63 -66 158 -88 210
-22 52 -65 153 -94 225 -82 197 42 175 -992 174 -479 0 -880 -4 -891 -9z
m1749 -112 c8 -13 38 -79 66 -148 29 -69 72 -170 95 -225 24 -55 64 -152 90
-215 26 -63 62 -152 82 -198 39 -92 55 -45 -160 -480 -109 -221 -179 -296
-316 -336 -68 -20 -2293 -25 -2317 -5 -16 13 -34 -26 293 659 87 182 153 321
153 324 0 2 42 90 93 197 51 107 118 246 147 309 30 63 58 121 63 128 20 26
1694 17 1711 -10z"/>
  </g>
</svg>
