<svg xmlns="http://www.w3.org/2000/svg" viewBox="0 0 1000 1000" width="1000" height="1000">
  <defs>
    <linearGradient id="afpassGold" x1="0%" y1="0%" x2="100%" y2="100%">
      <stop offset="0%" stop-color="#D4A95A"/>
      <stop offset="100%" stop-color="#8B6914"/>
    </linearGradient>
  </defs>
  <g transform="matrix(0.11543287327478043 0 0 -0.11543287327478043 -50.037641154328725 993.4755332496864)" fill="url(#afpassGold)" fill-rule="evenodd">
  <path d="M4540 7769 c-157 -14 -374 -145 -362 -218 2 -11 -14 -33 -37 -54 -22
-20 -43 -48 -47 -62 -3 -14 -10 -28 -15 -31 -5 -3 -7 -10 -3 -15 3 -6 -2 -19
-12 -30 -19 -21 -23 -28 -76 -130 -21 -40 -38 -79 -38 -87 0 -8 -12 -28 -26
-45 -15 -17 -23 -38 -21 -49 3 -10 1 -21 -5 -24 -5 -3 -7 -12 -4 -19 3 -8 -11
-28 -31 -45 -19 -17 -32 -34 -29 -37 3 -4 -4 -17 -16 -30 -12 -13 -18 -23 -14
-23 5 0 3 -7 -4 -15 -7 -8 -9 -15 -4 -15 4 0 -2 -10 -13 -22 -38 -42 -105
-179 -94 -192 8 -9 2 -21 -19 -41 -16 -16 -35 -44 -41 -64 -6 -20 -17 -43 -24
-51 -25 -29 -75 -135 -70 -148 3 -8 -12 -33 -32 -56 -27 -31 -38 -53 -38 -79
-1 -25 -11 -47 -34 -72 -17 -20 -29 -41 -25 -46 3 -5 -8 -25 -25 -45 -17 -19
-29 -39 -26 -43 2 -5 -2 -14 -10 -21 -8 -7 -12 -16 -9 -22 3 -5 0 -15 -6 -23
-7 -8 -9 -15 -4 -15 4 0 -4 -12 -18 -27 -26 -28 -78 -127 -78 -149 0 -6 -9
-23 -21 -37 -11 -15 -22 -36 -24 -48 -3 -12 -11 -29 -18 -38 -22 -26 -72 -122
-92 -176 -11 -27 -29 -63 -41 -80 -12 -16 -31 -56 -43 -87 -11 -32 -33 -75
-49 -97 -16 -22 -37 -61 -47 -88 -10 -26 -28 -64 -40 -83 -20 -33 -62 -116
-85 -170 -5 -14 -20 -41 -31 -60 -44 -72 -108 -204 -103 -211 2 -4 -14 -36
-36 -71 -36 -55 -92 -165 -200 -393 -34 -72 -56 -128 -53 -137 1 -3 -4 -12
-12 -18 -8 -7 -15 -17 -15 -23 0 -6 -8 -20 -19 -31 -30 -34 -286 -545 -286
-573 0 -6 -7 -19 -16 -30 -21 -24 -181 -343 -172 -343 3 0 0 -8 -8 -17 -21
-26 -51 -83 -44 -83 4 0 -3 -13 -14 -28 -11 -15 -43 -75 -71 -132 -28 -58 -62
-125 -75 -150 -57 -105 -163 -320 -158 -320 3 0 0 -6 -7 -14 -24 -30 -99 -178
-106 -210 -2 -10 -10 -26 -18 -35 -7 -9 -16 -25 -20 -36 -3 -11 -21 -43 -39
-71 -19 -28 -43 -70 -53 -94 -18 -41 -195 -394 -355 -710 -82 -163 -91 -196
-60 -224 24 -22 1141 -37 1180 -16 20 10 69 95 100 170 7 19 40 91 72 159 33
68 59 125 59 128 0 3 16 40 36 82 20 42 81 173 136 291 55 118 115 247 133
285 18 39 50 106 70 150 20 44 51 109 68 145 17 36 49 103 71 150 22 47 66
139 99 204 32 66 78 163 102 215 24 53 81 175 128 271 217 451 332 689 367
765 10 22 80 166 155 319 75 154 145 300 155 326 10 25 56 122 103 215 94 188
217 443 217 450 0 3 50 107 111 232 61 126 135 278 164 338 220 459 213 448
266 387 28 -32 68 -93 74 -112 6 -21 20 -52 41 -96 13 -28 24 -56 24 -61 0 -6
12 -37 26 -69 39 -90 50 -114 74 -174 36 -88 62 -144 73 -159 6 -7 12 -20 13
-28 2 -8 10 -24 20 -34 10 -11 19 -30 21 -42 6 -45 56 -159 78 -177 8 -7 15
-21 15 -31 0 -10 4 -20 10 -24 5 -3 7 -11 4 -18 -2 -7 14 -50 36 -95 22 -46
40 -86 40 -90 0 -4 7 -20 16 -37 9 -16 27 -57 41 -90 14 -33 45 -100 69 -148
24 -49 44 -94 44 -100 0 -7 23 -57 50 -112 28 -55 50 -105 50 -110 0 -6 12
-36 26 -66 46 -96 60 -130 65 -157 1 -4 10 -19 20 -34 10 -14 19 -31 19 -37 0
-12 4 -21 35 -81 27 -51 31 -60 51 -110 10 -25 27 -55 38 -67 10 -13 17 -26
13 -29 -3 -4 4 -25 15 -48 12 -22 22 -45 22 -51 1 -9 17 -55 36 -100 5 -11 21
-51 36 -90 15 -38 30 -75 35 -80 4 -6 16 -33 27 -60 11 -28 34 -80 51 -117 17
-36 31 -72 31 -78 0 -7 11 -33 24 -59 13 -25 38 -80 56 -121 17 -41 36 -84 41
-95 48 -109 89 -209 104 -253 25 -77 38 -66 113 93 86 185 583 1197 823 1675
75 151 190 381 255 510 64 129 121 242 125 250 5 8 48 92 96 185 180 352 279
544 311 604 18 33 29 61 26 61 -4 0 -1 8 7 18 25 30 50 81 47 94 -2 7 9 29 23
48 46 62 172 317 163 331 -3 5 15 35 39 67 37 49 85 142 91 177 2 9 11 27 44
80 35 58 84 161 86 182 2 13 12 33 23 46 31 34 126 228 120 245 -1 4 10 23 24
42 14 19 38 62 54 95 15 33 32 67 36 75 109 205 117 332 20 342 -31 3 -36 4
-47 10 -18 11 -627 8 -640 -3 -8 -7 -15 -6 -19 1 -5 8 -10 8 -20 0 -9 -8 -15
-8 -20 0 -3 5 -24 10 -45 10 -21 0 -42 -5 -45 -10 -5 -8 -12 -7 -22 1 -19 16
-138 16 -157 0 -10 -8 -16 -9 -21 -1 -9 14 -48 13 -63 -2 -9 -9 -17 -10 -30
-2 -23 15 -140 16 -163 1 -15 -9 -24 -9 -40 1 -15 10 -24 10 -34 2 -9 -8 -15
-8 -20 0 -3 6 -23 10 -43 9 -20 -1 -76 1 -123 6 -59 5 -88 4 -93 -3 -4 -6 -13
-9 -20 -6 -8 3 -17 0 -21 -6 -5 -8 -11 -8 -21 1 -11 9 -17 9 -28 0 -11 -9 -19
-9 -34 0 -16 10 -24 10 -34 1 -11 -9 -17 -9 -26 0 -9 9 -19 8 -41 -5 -27 -16
-29 -16 -46 3 -22 24 -77 27 -95 5 -8 -9 -17 -12 -24 -6 -23 18 -83 22 -96 6
-8 -10 -17 -12 -24 -6 -20 17 -24 16 -45 -3 -20 -18 -22 -18 -40 -2 -11 10
-28 17 -38 15 -10 -1 -26 1 -36 6 -10 4 -23 2 -31 -5 -11 -8 -20 -8 -34 -1
-15 8 -23 7 -32 -4 -12 -14 -63 -11 -85 5 -18 13 -79 9 -96 -6 -14 -13 -18
-13 -28 0 -14 17 -237 20 -247 4 -3 -5 -11 -4 -19 2 -9 7 -15 8 -19 1 -5 -7
-15 -7 -31 1 -18 8 -28 8 -39 -1 -11 -9 -20 -10 -33 -2 -13 7 -22 6 -35 -5
-14 -14 -19 -14 -40 -1 -26 17 -284 22 -305 5 -7 -5 -14 -5 -18 1 -7 12 -596
12 -735 0z"/>
  <path d="M4450 4533 c-12 -35 -30 -76 -51 -113 -5 -8 -12 -22 -15 -30 -26 -61
-78 -168 -88 -180 -7 -8 -25 -44 -41 -80 -48 -112 -66 -152 -111 -247 -24 -50
-44 -97 -44 -103 0 -7 -8 -24 -19 -38 -17 -25 -48 -88 -88 -182 -8 -19 -19
-42 -24 -50 -24 -42 -89 -184 -89 -195 0 -7 -7 -18 -15 -25 -8 -7 -15 -19 -15
-27 0 -8 -11 -28 -25 -45 -52 -61 -41 -68 103 -67 70 0 360 -3 644 -7 615 -8
557 -28 475 161 -19 44 -64 148 -100 230 -35 83 -80 182 -100 222 -19 40 -37
80 -40 90 -4 10 -10 25 -15 33 -12 19 -72 153 -111 245 -16 39 -52 122 -81
185 -28 63 -62 140 -76 170 -45 102 -56 110 -74 53z"/>
  <path d="M3670 2561 c-121 -5 -154 -9 -152 -19 1 -7 -6 -25 -17 -40 -10 -15
-25 -43 -34 -62 -17 -41 -55 -124 -107 -235 -21 -44 -47 -102 -59 -130 -12
-27 -26 -57 -31 -65 -6 -8 -15 -26 -21 -40 -6 -14 -27 -61 -48 -105 -21 -44
-46 -98 -55 -120 -10 -22 -53 -112 -96 -200 -242 -492 -350 -721 -350 -741 0
-20 -156 -17 1335 -28 1186 -8 1154 -10 1276 55 100 54 149 118 251 329 49
102 93 192 97 200 122 236 120 196 15 462 -53 133 -104 261 -114 283 -10 22
-43 101 -73 175 -127 311 -92 274 -254 267 -73 -4 -134 -3 -137 1 -2 4 -274 9
-603 10 -329 1 -614 3 -633 5 -19 2 -105 1 -190 -2z"/>
  </g>
</svg>
